<?xml version="1.0" encoding="utf-8"?>
<!-- Generator: Adobe Illustrator 19.0.0, SVG Export Plug-In . SVG Version: 6.00 Build 0)  -->
<svg version="1.1" id="Layer_1" xmlns="http://www.w3.org/2000/svg" xmlns:xlink="http://www.w3.org/1999/xlink" x="0px" y="0px"
	 viewBox="0 0 800 792" style="enable-background:new 0 0 800 792;" xml:space="preserve">
<style type="text/css">
	.st0{fill:#FFFFFF;stroke:#231F20;stroke-miterlimit:10;}
</style>
<path id="XMLID_2_" class="st0" d="M381.6,137c-10,0.5-16.5,2.3-19.5,3.2c-42.1,13.2-53.5,60.5-71.1,87.4
	c-51.2,78.2-182.2,25.4-214.5,84.6C49.8,361,103.2,462.4,179,500.2c51.7,25.8,69.6-0.1,217.1,2.6c115.7,2.1,147.7,18.7,182.1-9.4
	c45.2-37.1,55.6-120.2,25.6-148.7c-30.3-28.9-98,2.1-105.1-15.4c-6.4-15.6,50.6-34.3,54.7-73.5C559.4,198.9,450.5,133.7,381.6,137z"
	/>
</svg>
