<?xml version="1.0" encoding="utf-8"?>
<!-- Generator: Adobe Illustrator 19.0.0, SVG Export Plug-In . SVG Version: 6.00 Build 0)  -->
<svg version="1.1" id="Layer_1" xmlns="http://www.w3.org/2000/svg" xmlns:xlink="http://www.w3.org/1999/xlink" x="0px" y="0px"
	 viewBox="0 0 800 792" style="enable-background:new 0 0 800 792;" xml:space="preserve">
<style type="text/css">
	.st0{fill:#FFFFFF;stroke:#231F20;stroke-miterlimit:10;}
</style>
<path id="XMLID_2_" class="st0" d="M523.5,205.4c-29.9-30.4-89.1,11.6-178.6,20.5c-116.8,11.6-162.4-45.3-217.9-7.7
	c-40.3,27.3-48.1,78.7-50.4,94c-17.2,113.7,90.9,239.3,160.7,229.1c53.9-7.9,48.1-91.5,114.5-112.8c89-28.5,171.3,98.3,226.5,65
	c38-23,38.5-107.2,25.6-148.7c-6.7-21.6-17.9-41.9-17.9-41.9c-10.6-19.2-18.2-26.2-32.5-47C529.9,221.5,532.7,214.7,523.5,205.4z"/>
</svg>
