<?xml version="1.0" encoding="utf-8"?>
<!-- Generator: Adobe Illustrator 19.0.0, SVG Export Plug-In . SVG Version: 6.00 Build 0)  -->
<svg version="1.1" xmlns="http://www.w3.org/2000/svg" xmlns:xlink="http://www.w3.org/1999/xlink" x="0px" y="0px"
	 viewBox="0 0 774 748" style="enable-background:new 0 0 774 748;" xml:space="preserve">
<style type="text/css">
	.st0{opacity:0.2;}
	.st1{fill:#1E2833;}
	.st2{fill:#3697D3;}
	.st3{fill:#FFFFFF;}
	.st4{fill:#44A7D7;}
	.st5{fill:#378BB5;}
	.st6{fill:#BCE6F8;}
	.st7{fill:#A0DCEE;}
	.st8{fill:#282828;}
</style>
<g id="robo_shadow">
	<path id="XMLID_26_" class="st0" d="M578,557.1c0-10.6-86.8-19.2-193.9-19.2s23.9,2.4,23.9,13s-131.1,25.4-23.9,25.4
		S578,567.6,578,557.1z"/>
</g>
<g id="hole_robo">
	<ellipse id="XMLID_18_" class="st1" cx="371.6" cy="556.9" rx="146.1" ry="22"/>
</g>
<g id="robo">
	<path id="XMLID_51_" class="st2" d="M301.1,323.1l0.8,37.3h130.8c14.4,0,27.1,7.6,34.3,18.9l22,23.2v-30.2
		c0-64.4-49.9-117.2-113.1-121.9l-0.8-14.6l-3-53.6c-1.8,0.5-4.2,0.8-6.2,0.8l0.1,52.1v15l0,4.3c-3.4,0-5.5-0.2-8.4-0.8l0.1-3.1
		c-2.8,0.2-6.2,0.6-9,1c-0.4,0.1-2.3,0.3-3.7,0.6c-0.2,0-1.4,0.9-1.5,1C319.8,262.9,301.1,290.7,301.1,323.1z"/>
	<path id="XMLID_42_" class="st3" d="M466.9,379.4c-7.2-11.4-19.8-18.9-34.3-18.9H303.6h-7.2c-22.4,0-40.5,18.1-40.5,40.5v4.9
		c0,14.5,7.6,27.1,19,34.3c6.2,3.9,13.6,6.2,21.5,6.2h7.2h129.1c22.4,0,40.5-18.1,40.5-40.5V401C473.2,393,470.9,385.6,466.9,379.4z
		"/>
	<path id="XMLID_45_" class="st4" d="M366.5,254.9v-4.8v-15V183c-0.1,0-0.1,0-0.2,0c-1.9,0-3.7-0.3-5.4-0.8l-3,53.6l-0.8,14.7
		l-0.2,3.4C359.8,254.5,363,254.9,366.5,254.9z"/>
	<path id="XMLID_38_" class="st4" d="M272.6,551.7l0.2,2.2l33.9-0.4v-12l-0.5-72.3l-31.3-28.9c-11.4-7.2-19-19.8-19-34.3V401
		c0-22.4,18.1-40.5,40.5-40.5h7.2v-37.7c0-34.3,19.2-63.2,45.2-71.4c-7,1-13.8,2.6-20.4,4.8c-48.8,16-84,61.9-84,116.1v177.4v1.9
		H272.6z"/>
	<path id="XMLID_31_" class="st2" d="M328.4,553h62.1l-12.4-13.7l-74.7-76l0.1,78.1v10.3h-31v20.1c13.4,1.8,30.6,3.2,48.3,4.1
		l-0.3-22.7L328.4,553z"/>
	<path id="XMLID_21_" class="st5" d="M466.9,379.4c3.9,6.3,6.3,13.6,6.3,21.6v4.9c0,22.4-18.1,40.5-40.5,40.5H303.6h-7.2
		c-7.9,0-15.3-2.3-21.5-6.2l28.7,28.7l70.4,70.4l12.4,12.4h-57.9h-8.8v24.2c14.7,0.7,30.5,1.2,47,1.2c36.5,0,69.6-2,94.1-5.2v-20.1
		h28.1v-1.9V401.3L466.9,379.4z"/>
</g>
<g id="digital">
	<g id="XMLID_46_">
		<path id="XMLID_47_" class="st6" d="M361.1,178c-3.6-4.5-5.8-10.2-5.8-16.4c0-8.8,4.3-16.6,11-21.3c-11.7,0.1-21.1,9.6-21.1,21.3
			c0,9.8,6.7,18.1,15.8,20.6c1.7,0.5,3.5,0.7,5.4,0.8C364.3,181.6,362.6,179.9,361.1,178z"/>
		<path id="XMLID_48_" class="st7" d="M366.5,140.3c-0.1,0-0.1,0-0.2,0c-6.6,4.8-11,12.5-11,21.3c0,6.2,2.2,11.9,5.8,16.4
			c1.5,1.9,3.2,3.6,5.2,5c0.1,0,0.1,0,0.2,0c1.9,0,3.8-0.3,5.6-0.8c9.1-2.5,15.8-10.7,15.8-20.6
			C387.8,149.9,378.2,140.3,366.5,140.3z"/>
	</g>
</g>
<g id="robo_eyes">
	<circle id="XMLID_56_" class="st8" cx="310" cy="403.4" r="6.5"/>
	<circle id="XMLID_55_" class="st8" cx="422.9" cy="403.4" r="6.5"/>
</g>
<g id="robo_mouth">
	<path id="XMLID_17_" class="st8" d="M390.6,487.2c0-2.1-1.7-3.8-3.8-3.8h-44.4c-2.1,0-3.8,1.7-3.8,3.8c0,2.1,1.7,3.8,3.8,3.8h44.4
		C388.9,491,390.6,489.3,390.6,487.2z"/>
</g>
</svg>
