<?xml version="1.0" encoding="utf-8"?>
<!-- Generator: Adobe Illustrator 19.0.0, SVG Export Plug-In . SVG Version: 6.00 Build 0)  -->
<svg version="1.1" xmlns="http://www.w3.org/2000/svg" xmlns:xlink="http://www.w3.org/1999/xlink" x="0px" y="0px"
	 viewBox="0 0 1920 1080" style="enable-background:new 0 0 1920 1080;" xml:space="preserve">
<style type="text/css">
	.st0{opacity:0.2;}
	.st1{fill:#1E2833;}
	.st2{fill:none;}
	.st3{fill:#F9C798;}
	.st4{fill:#F3B77A;}
	.st5{fill:#44A7D7;}
	.st6{fill:#3697D3;}
	.st7{fill:#282828;}
	.st8{fill:#FDBD4B;}
	.st9{fill:#F9B23E;}
	.st10{fill:#FFFFFF;}
	.st11{fill:#EFF2F4;}
	.st12{fill:#49667D;}
	.st13{fill:#2E3E51;}
	.st14{fill:#378BB5;}
	.st15{fill:#BCE6F8;}
	.st16{fill:#A0DCEE;}
</style>
<g id="shadow_designer">
	<path id="XMLID_116_" class="st0" d="M975.1,742.4c0-10.9-89.3-19.7-199.5-19.7s24.6,2.5,24.6,13.4c0,10.9-134.8,26.1-24.6,26.1
		S975.1,753.3,975.1,742.4z"/>
</g>
<g id="designer_hole_1_">
	<ellipse id="XMLID_115_" class="st1" cx="757.7" cy="738.5" rx="146.1" ry="22"/>
</g>
<g id="designer">
	<path id="XMLID_114_" class="st2" d="M746.3,470.1c0.4,0,0.8-0.1,1.1-0.1h-1.1V470.1z"/>
	<path id="XMLID_113_" class="st2" d="M749.5,435.4c-0.6,0-1.1,0.2-1.6,0.5h3.2C750.7,435.6,750.1,435.4,749.5,435.4z"/>
	<path id="XMLID_112_" class="st2" d="M769.1,435.4c-0.6,0-1.1,0.2-1.6,0.5h3.2C770.3,435.6,769.7,435.4,769.1,435.4z"/>
	<path id="XMLID_111_" class="st2" d="M759.3,435.4c-0.6,0-1.1,0.2-1.6,0.5h3.2C760.5,435.6,759.9,435.4,759.3,435.4z"/>
	<polygon id="XMLID_110_" class="st3" points="819.7,452.9 819.4,453.6 846.8,453.6 846.8,447.1 819.7,435.9 816.6,444.3 	"/>
	<polygon id="XMLID_109_" class="st4" points="819.7,452.9 816.6,461.7 819.7,469.9 846.8,458.7 846.8,452.9 	"/>
	<polygon id="XMLID_108_" class="st5" points="860.7,452.9 846.8,447.1 846.8,453.8 	"/>
	<polygon id="XMLID_107_" class="st6" points="846.8,458.7 860.7,452.9 846.8,452.9 	"/>
	<path id="XMLID_106_" class="st5" d="M757.7,435.9c-0.9,0.6-1.6,1.6-1.6,2.7v15h7.8v-14.7v-0.3c0-0.5,0.1-1,0.2-1.5
		c0.1-0.4,0.3-0.9,0.6-1.2h-1.1h-2.7H757.7z"/>
	<path id="XMLID_105_" class="st5" d="M767.5,435.9c-0.9,0.6-1.6,1.6-1.6,2.7v15h53.5l0.2-0.7l-3.1-8.6l3.1-8.4h-46.2h-2.7H767.5z"
		/>
	<path id="XMLID_104_" class="st5" d="M747.9,435.9c-0.9,0.6-1.6,1.6-1.6,2.7v15h7.8v-14.7v-0.3c0-0.5,0.1-1,0.2-1.5
		c0.1-0.4,0.3-0.9,0.6-1.2h-1.1h-2.7H747.9z"/>
	<path id="XMLID_87_" class="st5" d="M744.4,438.6c0-1,0.3-1.9,0.8-2.7h-70.9c-2,0-3.7,1.7-3.7,3.7v14h73.8V438.6z"/>
	<path id="XMLID_86_" class="st6" d="M670.5,452.9v13.3c0,2,1.7,3.7,3.7,3.7h70.1v-17H670.5z"/>
	<path id="XMLID_85_" class="st6" d="M819.7,452.9h-53.7v16.9c0.7,0,1.5,0.1,2.2,0.2h51.5l-3.1-8.3L819.7,452.9z"/>
	<path id="XMLID_84_" class="st6" d="M757.8,469.5c2.1,0,4.2,0.1,6.2,0.2v-16.7h-7.8v16.6C756.7,469.5,757.2,469.5,757.8,469.5
		L757.8,469.5z"/>
	<path id="XMLID_83_" class="st6" d="M754.2,452.9h-7.8v17h1.1c2.2-0.2,4.4-0.3,6.7-0.3V452.9z"/>
	<path id="XMLID_81_" class="st7" d="M754.2,438.6v0.3v14v16.7c0.7,0,1.3-0.1,2-0.1v-16.6v-14.3c0-1.2,0.6-2.2,1.6-2.7
		c0.5-0.3,1-0.5,1.6-0.5c0.6,0,1.1,0.2,1.6,0.5h2.7c-0.9-1.4-2.5-2.4-4.3-2.4c-1.8,0-3.4,1-4.3,2.4c-0.2,0.4-0.4,0.8-0.6,1.2
		C754.3,437.6,754.2,438.1,754.2,438.6z"/>
	<path id="XMLID_80_" class="st7" d="M746.3,469.9v-17v-14.3c0-1.2,0.6-2.2,1.6-2.7c0.5-0.3,1-0.5,1.6-0.5c0.6,0,1.1,0.2,1.6,0.5
		h2.7c-0.9-1.4-2.5-2.4-4.3-2.4c-1.8,0-3.4,1-4.3,2.4c-0.5,0.8-0.8,1.7-0.8,2.7v14.3v17v0.3c0.7-0.1,1.3-0.2,2-0.2V469.9z"/>
	<path id="XMLID_79_" class="st7" d="M764,438.6v0.3v14v16.7c0.7,0,1.3,0.1,2,0.1v-16.9v-14.3c0-1.2,0.6-2.2,1.6-2.7
		c0.5-0.3,1-0.5,1.6-0.5c0.6,0,1.1,0.2,1.6,0.5h2.7c-0.9-1.4-2.5-2.4-4.3-2.4c-1.8,0-3.4,1-4.3,2.4c-0.2,0.4-0.4,0.8-0.6,1.2
		C764.1,437.6,764,438.1,764,438.6z"/>
	<path id="XMLID_78_" class="st8" d="M694.5,602c-1.9-1.2-3.1-3.2-3.1-5.6c0-2.4,1.2-4.4,3.1-5.6l-0.7-46.5
		c0-34.8,18.5-64,44.6-72.9c0.1,0,2.1-0.7,2.2-0.7c-0.1,0-1,0.1-1.2,0.2c-7.2,1.1-14.2,2.7-20.9,4.9
		c-50.1,16.5-86.3,63.6-86.3,119.3v114.6H695L694.5,602z"/>
	<path id="XMLID_77_" class="st9" d="M768.2,469.9h-2.2v2h-2v-2h-7.8v2h-2v-2h-6.7c-0.4,0-0.8,0.1-1.1,0.1v1.9h-2v-1.7
		c-1.7,0.2-3.3,0.3-5,0.6c-26.7,8.4-46.4,38-46.4,73.3v46.6c1-0.7,2.2-1,3.6-1c3.7,0,6.7,3,6.7,6.7c0,3.7-3,6.7-6.7,6.7
		c-1.3,0-2.5-0.4-3.6-1v107.6h190.3V595C883.3,529.2,832.6,475.2,768.2,469.9z"/>
	<path id="XMLID_76_" class="st9" d="M765.9,469.9h2.2c-0.7-0.1-1.5-0.1-2.2-0.2V469.9z"/>
	<path id="XMLID_75_" class="st9" d="M757.8,469.5L757.8,469.5c-0.5,0-1.1,0.1-1.6,0.1v0.4h7.8v-0.3
		C761.9,469.5,759.8,469.5,757.8,469.5z"/>
	<path id="XMLID_74_" class="st9" d="M747.5,469.9h6.7v-0.3C751.9,469.7,749.7,469.8,747.5,469.9z"/>
	<path id="XMLID_73_" class="st9" d="M754.2,469.6v0.3v2h2v-2v-0.4C755.5,469.5,754.8,469.6,754.2,469.6z"/>
	<path id="XMLID_72_" class="st9" d="M746.3,472v-1.9c-0.7,0.1-1.3,0.1-2,0.2v1.7H746.3z"/>
	<path id="XMLID_70_" class="st9" d="M764,469.6v0.3v2h2v-2v-0.2C765.3,469.7,764.6,469.7,764,469.6z"/>
	<path id="XMLID_68_" class="st8" d="M689.9,596.4c0,2.4,1.2,4.4,3.1,5.6v-11.2C691.1,592,689.9,594,689.9,596.4z"/>
	<path id="XMLID_67_" class="st9" d="M703.2,596.4c0-3.7-3-6.7-6.7-6.7c-1.3,0-2.5,0.4-3.6,1V602c1,0.7,2.2,1,3.6,1
		C700.2,603.1,703.2,600.1,703.2,596.4z"/>
	<circle id="XMLID_66_" class="st9" cx="812.5" cy="596.4" r="6.7"/>
	<polygon id="XMLID_4_" class="st10" points="632.2,709.7 632.2,720.6 671.2,720.6 694.8,720.6 694.8,718.5 694.8,709.7 	"/>
	<path id="XMLID_61_" class="st10" d="M694.8,742.4h-62.6v1.1c14.8,3.6,36.6,6.7,62.6,8.6V742.4z"/>
	<rect id="XMLID_60_" x="632.2" y="722.5" class="st10" width="62.6" height="12.1"/>
	<polygon id="XMLID_3_" class="st11" points="693,709.7 693,718.5 693,720.6 845.5,720.6 883.3,720.6 883.3,709.7 	"/>
	<path id="XMLID_58_" class="st11" d="M693,742.4v9.6c19.5,1.5,41.5,2.3,64.8,2.3c53.4,0,100.1-4.3,125.6-10.8v-1.1H693z"/>
	<rect id="XMLID_57_" x="693" y="722.5" class="st11" width="190.3" height="12.1"/>
	<rect id="XMLID_54_" x="632.2" y="734.5" class="st12" width="62.6" height="7.9"/>
	<rect id="XMLID_53_" x="693" y="734.5" class="st13" width="190.3" height="7.9"/>
	<path id="XMLID_49_" class="st12" d="M632.2,720.6v1v5.4v0.6v0.9h62.6v-7.9H632.2z"/>
	<path id="XMLID_39_" class="st13" d="M693,720.6v7.9h190.3v-0.7V727v-5.3v-1.1H693z"/>
</g>
<g id="designer_eye">
	<g id="XMLID_9_">
		<path id="XMLID_19_" class="st7" d="M696.6,589.7c-1.3,0-2.5,0.4-3.6,1c-1.9,1.2-3.1,3.2-3.1,5.6c0,2.4,1.2,4.4,3.1,5.6
			c1,0.7,2.2,1,3.6,1c3.7,0,6.7-3,6.7-6.7C703.2,592.7,700.2,589.7,696.6,589.7z"/>
		<circle id="XMLID_16_" class="st7" cx="812.5" cy="596.4" r="6.7"/>
	</g>
</g>
<g id="designer_mouth">
	<path id="XMLID_1_" class="st7" d="M730.2,679.6c7.2,3.1,15.6,4.7,24.3,4.7c8.7,0,17.1-1.6,24.3-4.7c1.7-0.7,2.5-2.7,1.6-4.4l0,0
		c-0.8-1.5-2.5-2.2-4.1-1.5c-6.5,2.7-14,4.2-21.9,4.2c-7.9,0-15.4-1.4-21.9-4.2c-1.5-0.7-3.3,0-4.1,1.5
		C727.7,676.8,728.5,678.9,730.2,679.6z"/>
</g>
<g id="robo_shadow">
	<path id="XMLID_26_" class="st0" d="M1326,739.1c0-10.6-86.8-19.2-193.9-19.2s23.9,2.4,23.9,13s-131.1,25.4-23.9,25.4
		S1326,749.6,1326,739.1z"/>
</g>
<g id="hole_robo">
	<ellipse id="XMLID_18_" class="st1" cx="1119.6" cy="738.9" rx="146.1" ry="22"/>
</g>
<g id="robo">
	<path id="XMLID_51_" class="st6" d="M1049.1,505.1l0.8,37.3h130.8c14.4,0,27.1,7.6,34.3,18.9l22,23.2v-30.2
		c0-64.4-49.9-117.2-113.1-121.9l-0.8-14.6l-3-53.6c-1.8,0.5-4.2,0.8-6.2,0.8l0.1,52.1v15l0,4.3c-3.4,0-5.5-0.2-8.4-0.8l0.1-3.1
		c-2.8,0.2-6.2,0.6-9,1c-0.4,0.1-2.3,0.3-3.7,0.6c-0.2,0-1.4,0.9-1.5,1C1067.8,444.9,1049.1,472.7,1049.1,505.1z"/>
	<path id="XMLID_42_" class="st10" d="M1214.9,561.4c-7.2-11.4-19.8-18.9-34.3-18.9h-129.1h-7.2c-22.4,0-40.5,18.1-40.5,40.5v4.9
		c0,14.5,7.6,27.1,19,34.3c6.2,3.9,13.6,6.2,21.5,6.2h7.2h129.1c22.4,0,40.5-18.1,40.5-40.5V583
		C1221.2,575,1218.9,567.6,1214.9,561.4z"/>
	<path id="XMLID_45_" class="st5" d="M1114.5,436.9v-4.8v-15V365c-0.1,0-0.1,0-0.2,0c-1.9,0-3.7-0.3-5.4-0.8l-3,53.6l-0.8,14.7
		l-0.2,3.4C1107.8,436.5,1111,436.9,1114.5,436.9z"/>
	<path id="XMLID_38_" class="st5" d="M1020.6,733.7l0.2,2.2l33.9-0.4v-12l-0.5-72.3l-31.3-28.9c-11.4-7.2-19-19.8-19-34.3V583
		c0-22.4,18.1-40.5,40.5-40.5h7.2v-37.7c0-34.3,19.2-63.2,45.2-71.4c-7,1-13.8,2.6-20.4,4.8c-48.8,16-84,61.9-84,116.1v177.4v1.9
		H1020.6z"/>
	<path id="XMLID_31_" class="st6" d="M1076.4,735h62.1l-12.4-13.7l-74.7-76l0.1,78.1v10.3h-31v20.1c13.4,1.8,30.6,3.2,48.3,4.1
		l-0.3-22.7L1076.4,735z"/>
	<path id="XMLID_21_" class="st14" d="M1214.9,561.4c3.9,6.3,6.3,13.6,6.3,21.6v4.9c0,22.4-18.1,40.5-40.5,40.5h-129.1h-7.2
		c-7.9,0-15.3-2.3-21.5-6.2l28.7,28.7l70.4,70.4l12.4,12.4h-57.9h-8.8v24.2c14.7,0.7,30.5,1.2,47,1.2c36.5,0,69.6-2,94.1-5.2v-20.1
		h28.1v-1.9V583.3L1214.9,561.4z"/>
</g>
<g id="digital">
	<g id="XMLID_46_">
		<path id="XMLID_47_" class="st15" d="M1109.1,360c-3.6-4.5-5.8-10.2-5.8-16.4c0-8.8,4.3-16.6,11-21.3
			c-11.7,0.1-21.1,9.6-21.1,21.3c0,9.8,6.7,18.1,15.8,20.6c1.7,0.5,3.5,0.7,5.4,0.8C1112.3,363.6,1110.6,361.9,1109.1,360z"/>
		<path id="XMLID_48_" class="st16" d="M1114.5,322.3c-0.1,0-0.1,0-0.2,0c-6.6,4.8-11,12.5-11,21.3c0,6.2,2.2,11.9,5.8,16.4
			c1.5,1.9,3.2,3.6,5.2,5c0.1,0,0.1,0,0.2,0c1.9,0,3.8-0.3,5.6-0.8c9.1-2.5,15.8-10.7,15.8-20.6
			C1135.8,331.9,1126.2,322.3,1114.5,322.3z"/>
	</g>
</g>
<g id="robo_eyes">
	<circle id="XMLID_56_" class="st7" cx="1058" cy="585.4" r="6.5"/>
	<circle id="XMLID_55_" class="st7" cx="1170.9" cy="585.4" r="6.5"/>
</g>
<g id="robo_mouth">
	<path id="XMLID_17_" class="st7" d="M1138.6,669.2c0-2.1-1.7-3.8-3.8-3.8h-44.4c-2.1,0-3.8,1.7-3.8,3.8c0,2.1,1.7,3.8,3.8,3.8h44.4
		C1136.9,673,1138.6,671.3,1138.6,669.2z"/>
</g>
</svg>
