<?xml version="1.0" encoding="utf-8"?>
<!-- Generator: Adobe Illustrator 19.0.0, SVG Export Plug-In . SVG Version: 6.00 Build 0)  -->
<svg version="1.1" xmlns="http://www.w3.org/2000/svg" xmlns:xlink="http://www.w3.org/1999/xlink" x="0px" y="0px"
	 viewBox="0 0 726.1 756.1" style="enable-background:new 0 0 726.1 756.1;" xml:space="preserve">
<style type="text/css">
	.st0{opacity:0.2;}
	.st1{fill:#1E2833;}
	.st2{fill:none;}
	.st3{fill:#F9C798;}
	.st4{fill:#F3B77A;}
	.st5{fill:#44A7D7;}
	.st6{fill:#3697D3;}
	.st7{fill:#282828;}
	.st8{fill:#FDBD4B;}
	.st9{fill:#F9B23E;}
	.st10{fill:#FFFFFF;}
	.st11{fill:#EFF2F4;}
	.st12{fill:#49667D;}
	.st13{fill:#2E3E51;}
</style>
<g id="shadow_designer">
	<path id="XMLID_116_" class="st0" d="M562.3,540c0-10.9-89.3-19.7-199.5-19.7s24.6,2.5,24.6,13.4c0,10.9-134.8,26.1-24.6,26.1
		S562.3,550.9,562.3,540z"/>
</g>
<g id="designer_hole_1_">
	<ellipse id="XMLID_115_" class="st1" cx="344.9" cy="536.1" rx="146.1" ry="22"/>
</g>
<g id="designer">
	<path id="XMLID_114_" class="st2" d="M333.5,267.7c0.4,0,0.8-0.1,1.1-0.1h-1.1V267.7z"/>
	<path id="XMLID_113_" class="st2" d="M336.7,233c-0.6,0-1.1,0.2-1.6,0.5h3.2C337.8,233.2,337.3,233,336.7,233z"/>
	<path id="XMLID_112_" class="st2" d="M356.3,233c-0.6,0-1.1,0.2-1.6,0.5h3.2C357.4,233.2,356.9,233,356.3,233z"/>
	<path id="XMLID_111_" class="st2" d="M346.5,233c-0.6,0-1.1,0.2-1.6,0.5h3.2C347.6,233.2,347.1,233,346.5,233z"/>
	<polygon id="XMLID_110_" class="st3" points="406.8,250.5 406.6,251.2 433.9,251.2 433.9,244.7 406.8,233.5 403.7,241.9 	"/>
	<polygon id="XMLID_109_" class="st4" points="406.8,250.5 403.7,259.3 406.8,267.6 433.9,256.3 433.9,250.5 	"/>
	<polygon id="XMLID_108_" class="st5" points="447.8,250.5 433.9,244.7 433.9,251.4 	"/>
	<polygon id="XMLID_107_" class="st6" points="433.9,256.3 447.8,250.5 433.9,250.5 	"/>
	<path id="XMLID_106_" class="st5" d="M344.9,233.5c-0.9,0.6-1.6,1.6-1.6,2.7v15h7.8v-14.7v-0.3c0-0.5,0.1-1,0.2-1.5
		c0.1-0.4,0.3-0.9,0.6-1.2h-1.1h-2.7H344.9z"/>
	<path id="XMLID_105_" class="st5" d="M354.7,233.5c-0.9,0.6-1.6,1.6-1.6,2.7v15h53.5l0.2-0.7l-3.1-8.6l3.1-8.4h-46.2h-2.7H354.7z"
		/>
	<path id="XMLID_104_" class="st5" d="M335.1,233.5c-0.9,0.6-1.6,1.6-1.6,2.7v15h7.8v-14.7v-0.3c0-0.5,0.1-1,0.2-1.5
		c0.1-0.4,0.3-0.9,0.6-1.2H341h-2.7H335.1z"/>
	<path id="XMLID_87_" class="st5" d="M331.5,236.2c0-1,0.3-1.9,0.8-2.7h-70.9c-2,0-3.7,1.7-3.7,3.7v14h73.8V236.2z"/>
	<path id="XMLID_86_" class="st6" d="M257.7,250.5v13.3c0,2,1.7,3.7,3.7,3.7h70.1v-17H257.7z"/>
	<path id="XMLID_85_" class="st6" d="M406.8,250.5h-53.7v16.9c0.7,0,1.5,0.1,2.2,0.2h51.5l-3.1-8.3L406.8,250.5z"/>
	<path id="XMLID_84_" class="st6" d="M344.9,267.1c2.1,0,4.2,0.1,6.2,0.2v-16.7h-7.8v16.6C343.8,267.1,344.4,267.1,344.9,267.1
		L344.9,267.1z"/>
	<path id="XMLID_83_" class="st6" d="M341.3,250.5h-7.8v17h1.1c2.2-0.2,4.4-0.3,6.7-0.3V250.5z"/>
	<path id="XMLID_81_" class="st7" d="M341.3,236.2v0.3v14v16.7c0.7,0,1.3-0.1,2-0.1v-16.6v-14.3c0-1.2,0.6-2.2,1.6-2.7
		c0.5-0.3,1-0.5,1.6-0.5c0.6,0,1.1,0.2,1.6,0.5h2.7c-0.9-1.4-2.5-2.4-4.3-2.4c-1.8,0-3.4,1-4.3,2.4c-0.2,0.4-0.4,0.8-0.6,1.2
		C341.4,235.2,341.3,235.7,341.3,236.2z"/>
	<path id="XMLID_80_" class="st7" d="M333.5,267.6v-17v-14.3c0-1.2,0.6-2.2,1.6-2.7c0.5-0.3,1-0.5,1.6-0.5c0.6,0,1.1,0.2,1.6,0.5
		h2.7c-0.9-1.4-2.5-2.4-4.3-2.4c-1.8,0-3.4,1-4.3,2.4c-0.5,0.8-0.8,1.7-0.8,2.7v14.3v17v0.3c0.7-0.1,1.3-0.2,2-0.2V267.6z"/>
	<path id="XMLID_79_" class="st7" d="M351.1,236.2v0.3v14v16.7c0.7,0,1.3,0.1,2,0.1v-16.9v-14.3c0-1.2,0.6-2.2,1.6-2.7
		c0.5-0.3,1-0.5,1.6-0.5c0.6,0,1.1,0.2,1.6,0.5h2.7c-0.9-1.4-2.5-2.4-4.3-2.4c-1.8,0-3.4,1-4.3,2.4c-0.2,0.4-0.4,0.8-0.6,1.2
		C351.2,235.2,351.1,235.7,351.1,236.2z"/>
	<path id="XMLID_78_" class="st8" d="M281.7,399.6c-1.9-1.2-3.1-3.2-3.1-5.6s1.2-4.4,3.1-5.6l-0.7-46.5c0-34.8,18.5-64,44.6-72.9
		c0.1,0,2.1-0.7,2.2-0.7c-0.1,0-1,0.1-1.2,0.2c-7.2,1.1-14.2,2.7-20.9,4.9c-50.1,16.5-86.3,63.6-86.3,119.3v114.6h62.8L281.7,399.6z
		"/>
	<path id="XMLID_77_" class="st9" d="M355.3,267.6h-2.2v2h-2v-2h-7.8v2h-2v-2h-6.7c-0.4,0-0.8,0.1-1.1,0.1v1.9h-2v-1.7
		c-1.7,0.2-3.3,0.3-5,0.6c-26.7,8.4-46.4,38-46.4,73.3v46.6c1-0.7,2.2-1,3.6-1c3.7,0,6.7,3,6.7,6.7c0,3.7-3,6.7-6.7,6.7
		c-1.3,0-2.5-0.4-3.6-1v107.6h190.3V392.7C470.5,326.8,419.8,272.9,355.3,267.6z"/>
	<path id="XMLID_76_" class="st9" d="M353.1,267.6h2.2c-0.7-0.1-1.5-0.1-2.2-0.2V267.6z"/>
	<path id="XMLID_75_" class="st9" d="M344.9,267.1L344.9,267.1c-0.5,0-1.1,0.1-1.6,0.1v0.4h7.8v-0.3
		C349.1,267.1,347,267.1,344.9,267.1z"/>
	<path id="XMLID_74_" class="st9" d="M334.6,267.6h6.7v-0.3C339.1,267.3,336.9,267.4,334.6,267.6z"/>
	<path id="XMLID_73_" class="st9" d="M341.3,267.2v0.3v2h2v-2v-0.4C342.6,267.2,342,267.2,341.3,267.2z"/>
	<path id="XMLID_72_" class="st9" d="M333.5,269.6v-1.9c-0.7,0.1-1.3,0.1-2,0.2v1.7H333.5z"/>
	<path id="XMLID_70_" class="st9" d="M351.1,267.2v0.3v2h2v-2v-0.2C352.4,267.3,351.8,267.3,351.1,267.2z"/>
	<path id="XMLID_68_" class="st8" d="M277,394c0,2.4,1.2,4.4,3.1,5.6v-11.2C278.3,389.6,277,391.6,277,394z"/>
	<path id="XMLID_67_" class="st9" d="M290.4,394c0-3.7-3-6.7-6.7-6.7c-1.3,0-2.5,0.4-3.6,1v11.2c1,0.7,2.2,1,3.6,1
		C287.4,400.7,290.4,397.7,290.4,394z"/>
	<circle id="XMLID_66_" class="st9" cx="399.7" cy="394" r="6.7"/>
	<polygon id="XMLID_4_" class="st10" points="219.3,507.3 219.3,518.2 258.3,518.2 282,518.2 282,516.1 282,507.3 	"/>
	<path id="XMLID_61_" class="st10" d="M282,540h-62.6v1.1c14.8,3.6,36.6,6.7,62.6,8.6V540z"/>
	<rect id="XMLID_60_" x="219.3" y="520.1" class="st10" width="62.6" height="12.1"/>
	<polygon id="XMLID_3_" class="st11" points="280.1,507.3 280.1,516.1 280.1,518.2 432.6,518.2 470.5,518.2 470.5,507.3 	"/>
	<path id="XMLID_58_" class="st11" d="M280.1,540v9.6c19.5,1.5,41.5,2.3,64.8,2.3c53.4,0,100.1-4.3,125.6-10.8V540H280.1z"/>
	<rect id="XMLID_57_" x="280.1" y="520.1" class="st11" width="190.3" height="12.1"/>
	<rect id="XMLID_54_" x="219.3" y="532.1" class="st12" width="62.6" height="7.9"/>
	<rect id="XMLID_53_" x="280.1" y="532.1" class="st13" width="190.3" height="7.9"/>
	<path id="XMLID_49_" class="st12" d="M219.3,518.2v1v5.4v0.6v0.9H282v-7.9H219.3z"/>
	<path id="XMLID_39_" class="st13" d="M280.1,518.2v7.9h190.3v-0.7v-0.8v-5.3v-1.1H280.1z"/>
</g>
<g id="designer_eye">
	<g id="XMLID_9_">
		<path id="XMLID_19_" class="st7" d="M283.7,387.4c-1.3,0-2.5,0.4-3.6,1c-1.9,1.2-3.1,3.2-3.1,5.6c0,2.4,1.2,4.4,3.1,5.6
			c1,0.7,2.2,1,3.6,1c3.7,0,6.7-3,6.7-6.7C290.4,390.3,287.4,387.4,283.7,387.4z"/>
		<circle id="XMLID_16_" class="st7" cx="399.7" cy="394" r="6.7"/>
	</g>
</g>
<g id="designer_mouth">
	<path id="XMLID_1_" class="st7" d="M317.4,477.2c7.2,3.1,15.6,4.7,24.3,4.7c8.7,0,17.1-1.6,24.3-4.7c1.7-0.7,2.5-2.7,1.6-4.4l0,0
		c-0.8-1.5-2.5-2.2-4.1-1.5c-6.5,2.7-14,4.2-21.9,4.2c-7.9,0-15.4-1.4-21.9-4.2c-1.5-0.7-3.3,0-4.1,1.5
		C314.9,474.5,315.7,476.5,317.4,477.2z"/>
</g>
</svg>
